<?xml version="1.0" encoding="UTF-8"?>
<svg xmlns="http://www.w3.org/2000/svg" version="1.1" width="256" height="256" viewbox="0 0 256 256">
  <title>Gefahr durch Wassereinbruch</title>
  <path d="M50,64 L128,192 L206,64 Z" stroke-width="5" stroke="#003399" fill="none"></path>
  <path d="M78,84 a10,10 180 1 1 20,0 a10,10 180 1 0 20,0 a10,10 180 1 1 20,0 a10,10 180 1 0 20,0 a10,10 180 1 1 20,0" stroke="#003399" stroke-width="5" fill="none"></path>
  <path d="M78,100 a10,10 180 1 1 20,0 a10,10 180 1 0 20,0 a10,10 180 1 1 20,0 a10,10 180 1 0 20,0 a10,10 180 1 1 20,0" stroke="#003399" stroke-width="5" fill="none"></path>
</svg>
