<svg viewBox="0 0 96 96" role="img" aria-labelledby="logoTitle" xmlns="http://www.w3.org/2000/svg">
  <title id="logoTitle">KoordinatenWerk – Kompassrose</title>
  <circle cx="48" cy="48" r="36" fill="none" stroke="#8fb4ff" stroke-width="2"/>
  <g stroke="#8fb4ff" stroke-opacity="0.35" stroke-width="1">
    <circle cx="48" cy="48" r="26" fill="none"/>
    <circle cx="48" cy="48" r="16" fill="none"/>
    <line x1="12" y1="48" x2="84" y2="48"/>
    <line x1="48" y1="12" x2="48" y2="84"/>
  </g>
  <g stroke="#8fb4ff" stroke-width="2" stroke-linecap="round">
    <line x1="48" y1="8"  x2="48" y2="14"/>
    <line x1="48" y1="82" x2="48" y2="88"/>
    <line x1="8"  y1="48" x2="14" y2="48"/>
    <line x1="82" y1="48" x2="88" y2="48"/>
    <line x1="19.5" y1="19.5" x2="24" y2="24"/>
    <line x1="72.5" y1="72.5" x2="68" y2="68"/>
    <line x1="72.5" y1="23.5" x2="68" y2="28"/>
    <line x1="19.5" y1="72.5" x2="24" y2="68"/>
  </g>
  <g transform="rotate(-20 48 48)">
    <polygon points="48,16 55,41 48,46 41,41" fill="#8fb4ff"/>
    <polygon points="48,80 41,46 48,41 55,46" fill="none" stroke="#8fb4ff" stroke-width="1.8"/>
  </g>
  <circle cx="48" cy="48" r="2.2" fill="#8fb4ff"/>
</svg>